<svg xmlns="http://www.w3.org/2000/svg" viewBox="0 0 24 24">
  <symbol id="copy" viewBox="0 0 24 24">
    <path d="M16 1H6a2 2 0 0 0-2 2v12h2V3h10V1zm3 4H10a2 2 0 0 0-2 2v14h11a2 2 0 0 0 2-2V7a2 2 0 0 0-2-2zm0 16H10V7h9v14z" fill="currentColor"/>
  </symbol>

  <symbol id="copied" viewBox="0 0 24 24">
    <path d="M20.3 6.7 11 16l-4.3-4.3-1.4 1.4L11 18.8 21.7 8.1l-1.4-1.4z" fill="currentColor"/>
    <path d="M16 1H6a2 2 0 0 0-2 2v12h2V3h10V1zm3 4H10a2 2 0 0 0-2 2v14h11a2 2 0 0 0 2-2V7a2 2 0 0 0-2-2zm0 16H10V7h9v14z" fill="currentColor" opacity=".35"/>
  </symbol>
</svg>
